<?xml version="1.0" encoding="UTF-8"?>
<!DOCTYPE svg PUBLIC "-//W3C//DTD SVG 1.1//EN" "http://www.w3.org/Graphics/SVG/1.1/DTD/svg11.dtd">
<svg xmlns="http://www.w3.org/2000/svg" version="1.1" width="164px" height="125px" style="shape-rendering:geometricPrecision; text-rendering:geometricPrecision; image-rendering:optimizeQuality; fill-rule:evenodd; clip-rule:evenodd" xmlns:xlink="http://www.w3.org/1999/xlink">
<g><path style="opacity:0.905" fill="#7caacf" d="M 123.5,19.5 C 123.5,20.1667 123.833,20.5 124.5,20.5C 124.5,20.8333 124.5,21.1667 124.5,21.5C 124.591,23.6977 123.925,24.0311 122.5,22.5C 121.71,21.5987 120.71,20.9321 119.5,20.5C 119.027,19.0937 118.027,18.427 116.5,18.5C 116.047,17.5416 115.381,16.7083 114.5,16C 98.0598,6.32877 80.7265,4.99544 62.5,12C 35.1038,26.9527 25.4371,49.4527 33.5,79.5C 33.5,80.5 33.5,81.5 33.5,82.5C 35.0311,83.9245 34.6977,84.5912 32.5,84.5C 32.5,83.8333 32.1667,83.5 31.5,83.5C 22.1853,49.834 32.5186,25.0006 62.5,9C 84.8504,1.17535 105.184,4.67535 123.5,19.5 Z M 116.5,18.5 C 118.027,18.427 119.027,19.0937 119.5,20.5C 117.973,20.573 116.973,19.9063 116.5,18.5 Z M 119.5,20.5 C 120.71,20.9321 121.71,21.5987 122.5,22.5C 100.167,22.5 77.8333,22.5 55.5,22.5C 76.8333,21.8333 98.1667,21.1667 119.5,20.5 Z"/></g>
<g><path style="opacity:1" fill="#145776" d="M 9.5,22.5 C 12.1667,22.5 14.8333,22.5 17.5,22.5C 17.5,23.1667 17.8333,23.5 18.5,23.5C 21.3775,26.9601 21.0441,30.1268 17.5,33C 15.2852,33.1705 13.2852,33.8372 11.5,35C 16.0711,52.784 20.5711,70.6174 25,88.5C 26.6779,90.5532 28.5112,90.8866 30.5,89.5C 30.5,89.1667 30.5,88.8333 30.5,88.5C 31.8333,88.5 32.5,87.8333 32.5,86.5C 32.8333,86.5 33.1667,86.5 33.5,86.5C 34.261,89.8539 35.9277,92.6872 38.5,95C 37.001,95.8382 36.6676,96.6715 37.5,97.5C 30.0933,101.926 23.0933,101.26 16.5,95.5C 16.5,94.8333 16.1667,94.5 15.5,94.5C 15.5,94.1667 15.5,93.8333 15.5,93.5C 15.5,92.8333 15.1667,92.5 14.5,92.5C 14.5,92.1667 14.5,91.8333 14.5,91.5C 14.7373,90.209 14.404,89.209 13.5,88.5C 13.7678,86.901 13.4345,85.5676 12.5,84.5C 12.7678,82.901 12.4345,81.5676 11.5,80.5C 11.6716,79.5084 11.3382,78.8417 10.5,78.5C 10.5,77.5 10.5,76.5 10.5,75.5C 10.7373,74.209 10.404,73.209 9.5,72.5C 9.5,72.1667 9.5,71.8333 9.5,71.5C 9.67158,70.5084 9.33825,69.8417 8.5,69.5C 8.5,68.8333 8.5,68.1667 8.5,67.5C 8.5,66.8333 8.16667,66.5 7.5,66.5C 7.5,65.5 7.5,64.5 7.5,63.5C 7.67158,62.5084 7.33825,61.8417 6.5,61.5C 6.5,60.8333 6.5,60.1667 6.5,59.5C 6.76781,57.901 6.43448,56.5676 5.5,55.5C 5.67158,54.5084 5.33825,53.8417 4.5,53.5C 4.5,52.8333 4.5,52.1667 4.5,51.5C 4.76781,49.901 4.43448,48.5676 3.5,47.5C 3.67158,46.5084 3.33825,45.8417 2.5,45.5C 2.5,44.8333 2.5,44.1667 2.5,43.5C 2.76781,41.901 2.43448,40.5676 1.5,39.5C 1.5,36.8333 1.5,34.1667 1.5,31.5C 1.5,30.8333 1.5,30.1667 1.5,29.5C 2.33825,29.1583 2.67158,28.4916 2.5,27.5C 3.16667,27.5 3.5,27.1667 3.5,26.5C 4.16667,26.5 4.5,26.1667 4.5,25.5C 5.16667,25.5 5.5,25.1667 5.5,24.5C 6.49162,24.6716 7.15829,24.3382 7.5,23.5C 8.49162,23.6716 9.15829,23.3382 9.5,22.5 Z M 32.5,86.5 C 32.5,87.8333 31.8333,88.5 30.5,88.5C 30.8333,87.5 31.5,86.8333 32.5,86.5 Z"/></g>
<g><path style="opacity:1" fill="#5797be" d="M 54.5,23.5 C 54.8333,23.5 55.1667,23.5 55.5,23.5C 73.5,23.5 91.5,23.5 109.5,23.5C 107.031,24.3171 104.365,24.8171 101.5,25C 105.187,27.3643 108.854,29.6976 112.5,32C 109.518,32.498 106.518,32.6646 103.5,32.5C 87.8215,24.0229 72.4882,24.5229 57.5,34C 55.2659,36.0627 53.2659,38.2294 51.5,40.5C 51.1667,40.5 50.8333,40.5 50.5,40.5C 50.5,40.1667 50.5,39.8333 50.5,39.5C 50.5,37.8333 50.5,36.1667 50.5,34.5C 50.5,33.5 50.5,32.5 50.5,31.5C 51.404,30.791 51.7373,29.791 51.5,28.5C 52.404,27.791 52.7373,26.791 52.5,25.5C 53.1667,25.5 53.5,25.1667 53.5,24.5C 54.1667,24.5 54.5,24.1667 54.5,23.5 Z"/></g>
<g><path style="opacity:1" fill="#4283a9" d="M 109.5,23.5 C 111.527,23.3379 113.527,23.5045 115.5,24C 114.5,24.3333 113.5,24.6667 112.5,25C 114.928,28.0976 117.928,30.431 121.5,32C 119.942,32.21 118.609,32.71 117.5,33.5C 112.833,33.5 108.167,33.5 103.5,33.5C 103.5,33.1667 103.5,32.8333 103.5,32.5C 106.518,32.6646 109.518,32.498 112.5,32C 108.854,29.6976 105.187,27.3643 101.5,25C 104.365,24.8171 107.031,24.3171 109.5,23.5 Z"/></g>
<g><path style="opacity:1" fill="#316a89" d="M 124.5,21.5 C 124.833,21.5 125.167,21.5 125.5,21.5C 125.5,21.8333 125.5,22.1667 125.5,22.5C 125.5,22.8333 125.5,23.1667 125.5,23.5C 125.389,24.1174 125.056,24.6174 124.5,25C 126.608,27.8946 128.941,30.5612 131.5,33C 130.207,33.49 128.873,33.6567 127.5,33.5C 124.167,33.5 120.833,33.5 117.5,33.5C 118.609,32.71 119.942,32.21 121.5,32C 117.928,30.431 114.928,28.0976 112.5,25C 113.5,24.6667 114.5,24.3333 115.5,24C 113.527,23.5045 111.527,23.3379 109.5,23.5C 91.5,23.5 73.5,23.5 55.5,23.5C 55.5,23.1667 55.5,22.8333 55.5,22.5C 77.8333,22.5 100.167,22.5 122.5,22.5C 123.925,24.0311 124.591,23.6977 124.5,21.5 Z"/></g>
<g><path style="opacity:1" fill="#165776" d="M 125.5,23.5 C 127.167,23.5 128.833,23.5 130.5,23.5C 130.833,23.5 131.167,23.5 131.5,23.5C 132.568,24.4345 133.901,24.7678 135.5,24.5C 136.209,25.404 137.209,25.7373 138.5,25.5C 138.833,25.5 139.167,25.5 139.5,25.5C 139.5,26.1667 139.833,26.5 140.5,26.5C 140.842,27.3382 141.508,27.6716 142.5,27.5C 142.842,28.3382 143.508,28.6716 144.5,28.5C 144.833,28.5 145.167,28.5 145.5,28.5C 145.5,29.1667 145.833,29.5 146.5,29.5C 158.931,42.8929 162.764,58.5596 158,76.5C 152.473,91.5313 141.64,99.698 125.5,101C 124.944,101.383 124.611,101.883 124.5,102.5C 123.833,102.5 123.5,102.833 123.5,103.5C 122.833,103.5 122.5,103.833 122.5,104.5C 122.167,104.5 121.833,104.5 121.5,104.5C 121.5,103.833 121.167,103.5 120.5,103.5C 120.5,103.167 120.5,102.833 120.5,102.5C 121.376,102.631 122.043,102.298 122.5,101.5C 116.346,100.833 110.346,100.167 104.5,99.5C 110.842,99.6662 117.175,99.4995 123.5,99C 123.167,98.6667 122.833,98.3333 122.5,98C 124.53,96.1038 126.197,93.9371 127.5,91.5C 125.257,90.5258 122.924,90.1924 120.5,90.5C 115.968,90.8182 111.634,90.4849 107.5,89.5C 108.5,89.5 109.5,89.5 110.5,89.5C 116.167,89.5 121.833,89.5 127.5,89.5C 128.791,89.7373 129.791,89.404 130.5,88.5C 131.791,88.7373 132.791,88.404 133.5,87.5C 134.492,87.6716 135.158,87.3382 135.5,86.5C 136.492,86.6716 137.158,86.3382 137.5,85.5C 138.492,85.6716 139.158,85.3382 139.5,84.5C 140.167,84.5 140.5,84.1667 140.5,83.5C 141.167,83.5 141.5,83.1667 141.5,82.5C 142.167,82.5 142.5,82.1667 142.5,81.5C 143.167,81.5 143.5,81.1667 143.5,80.5C 144.338,80.1583 144.672,79.4916 144.5,78.5C 145.338,78.1583 145.672,77.4916 145.5,76.5C 145.833,76.5 146.167,76.5 146.5,76.5C 147.404,75.791 147.737,74.791 147.5,73.5C 147.5,72.8333 147.5,72.1667 147.5,71.5C 148.338,71.1583 148.672,70.4916 148.5,69.5C 148.5,64.8333 148.5,60.1667 148.5,55.5C 148.768,53.901 148.434,52.5676 147.5,51.5C 147.737,50.209 147.404,49.209 146.5,48.5C 146.672,47.5084 146.338,46.8417 145.5,46.5C 145.5,46.1667 145.5,45.8333 145.5,45.5C 145.068,44.2905 144.401,43.2905 143.5,42.5C 139.307,37.4052 133.974,34.4052 127.5,33.5C 128.873,33.6567 130.207,33.49 131.5,33C 128.941,30.5612 126.608,27.8946 124.5,25C 125.056,24.6174 125.389,24.1174 125.5,23.5 Z"/></g>
<g><path style="opacity:0.072" fill="#1e1e1d" d="M 123.5,19.5 C 134.846,17.9963 145.346,21.3296 155,29.5C 159.938,34.8717 161.771,41.205 160.5,48.5C 161.5,48.5 162.5,48.5 163.5,48.5C 163.5,57.5 163.5,66.5 163.5,75.5C 161.748,75.4176 160.748,76.2509 160.5,78C 161.742,82.1641 161.742,86.3308 160.5,90.5C 150.333,103.241 137,108.908 120.5,107.5C 120.5,107.167 120.5,106.833 120.5,106.5C 121.167,106.5 121.5,106.167 121.5,105.5C 122.167,105.5 122.5,105.167 122.5,104.5C 123.167,104.5 123.5,104.167 123.5,103.5C 124.167,103.5 124.5,103.167 124.5,102.5C 124.611,101.883 124.944,101.383 125.5,101C 141.64,99.698 152.473,91.5313 158,76.5C 162.764,58.5596 158.931,42.8929 146.5,29.5C 145.833,29.5 145.5,29.1667 145.5,28.5C 145.167,27.1667 144.833,27.1667 144.5,28.5C 143.508,28.6716 142.842,28.3382 142.5,27.5C 141.508,27.6716 140.842,27.3382 140.5,26.5C 139.833,26.5 139.5,26.1667 139.5,25.5C 139.167,24.1667 138.833,24.1667 138.5,25.5C 137.209,25.7373 136.209,25.404 135.5,24.5C 133.901,24.7678 132.568,24.4345 131.5,23.5C 134.806,22.5772 134.472,22.5772 130.5,23.5C 128.833,23.5 127.167,23.5 125.5,23.5C 125.5,23.1667 125.5,22.8333 125.5,22.5C 130.833,22.1667 130.833,21.8333 125.5,21.5C 125.5,20.8333 125.167,20.5 124.5,20.5C 123.833,20.5 123.5,20.1667 123.5,19.5 Z"/></g>
<g><path style="opacity:1" fill="#71a6c8" d="M 103.5,32.5 C 103.5,32.8333 103.5,33.1667 103.5,33.5C 89.1267,32.8509 75.1267,33.5176 61.5,35.5C 60.395,41.267 57.0617,42.9337 51.5,40.5C 53.2659,38.2294 55.2659,36.0627 57.5,34C 72.4882,24.5229 87.8215,24.0229 103.5,32.5 Z"/></g>
<g><path style="opacity:0.06" fill="#1d1d1c" d="M 103.5,33.5 C 108.167,33.5 112.833,33.5 117.5,33.5C 120.833,33.5 124.167,33.5 127.5,33.5C 133.974,34.4052 139.307,37.4052 143.5,42.5C 144.401,43.2905 145.068,44.2905 145.5,45.5C 144.356,46.8493 144.356,47.1826 145.5,46.5C 146.338,46.8417 146.672,47.5084 146.5,48.5C 147.404,49.209 147.737,50.209 147.5,51.5C 148.434,52.5676 148.768,53.901 148.5,55.5C 147.167,60.1667 147.167,64.8333 148.5,69.5C 148.672,70.4916 148.338,71.1583 147.5,71.5C 146.266,71.2849 146.266,71.9516 147.5,73.5C 147.737,74.791 147.404,75.791 146.5,76.5C 146.167,73.8333 145.833,73.8333 145.5,76.5C 144.662,76.8417 144.328,77.5084 144.5,78.5C 143.662,78.8417 143.328,79.5084 143.5,80.5C 142.833,80.5 142.5,80.8333 142.5,81.5C 141.833,81.5 141.5,81.8333 141.5,82.5C 140.833,82.5 140.5,82.8333 140.5,83.5C 139.833,83.5 139.5,83.8333 139.5,84.5C 138.508,84.3284 137.842,84.6618 137.5,85.5C 136.508,85.3284 135.842,85.6618 135.5,86.5C 134.508,86.3284 133.842,86.6618 133.5,87.5C 131.801,87.3398 130.134,87.5065 128.5,88C 129.094,88.4643 129.761,88.631 130.5,88.5C 129.791,89.404 128.791,89.7373 127.5,89.5C 121.833,88.1667 116.167,88.1667 110.5,89.5C 109.5,89.5 108.5,89.5 107.5,89.5C 106.833,76.8333 106.167,64.1667 105.5,51.5C 105.167,50.8333 104.833,50.1667 104.5,49.5C 104.5,48.8333 104.167,48.5 103.5,48.5C 98.5,47.1667 93.5,47.1667 88.5,48.5C 87.1667,48.5 86.5,49.1667 86.5,50.5C 85.8333,50.5 85.5,50.8333 85.5,51.5C 84.6618,51.8417 84.3284,52.5084 84.5,53.5C 83.1667,54.5 83.1667,55.5 84.5,56.5C 84.6716,57.4916 84.3382,58.1583 83.5,58.5C 82.5798,57.9326 82.2465,58.5992 82.5,60.5C 81.596,61.209 81.2627,62.209 81.5,63.5C 80.596,64.209 80.2627,65.209 80.5,66.5C 79.596,67.209 79.2627,68.209 79.5,69.5C 78.596,70.209 78.2627,71.209 78.5,72.5C 77.1667,73.5 77.1667,74.5 78.5,75.5C 78.5,76.1667 78.1667,76.5 77.5,76.5C 76.1667,77.1667 76.1667,77.8333 77.5,78.5C 77.6716,79.4916 77.3382,80.1583 76.5,80.5C 75.5798,79.9326 75.2465,80.5992 75.5,82.5C 74.596,83.209 74.2627,84.209 74.5,85.5C 73.5987,86.2905 72.9321,87.2905 72.5,88.5C 71.209,88.2627 70.209,88.596 69.5,89.5C 67.5956,89.2624 66.2623,88.2624 65.5,86.5C 63.5667,79.0335 61.2333,71.7002 58.5,64.5C 59.7348,64.2786 60.7348,63.6119 61.5,62.5C 64.5233,67.7214 66.69,73.3881 68,79.5C 68.4983,81.5444 69.665,82.8777 71.5,83.5C 71.8333,83.5 72.1667,83.5 72.5,83.5C 73.7384,81.7857 74.405,79.7857 74.5,77.5C 76.7612,67.5496 79.9278,57.883 84,48.5C 85.8873,46.114 88.3873,44.9473 91.5,45C 97.6339,44.0999 103.634,44.5999 109.5,46.5C 111.703,48.2954 112.869,50.6288 113,53.5C 113.333,63.8333 113.667,74.1667 114,84.5C 137.23,88.5979 147.396,79.0979 144.5,56C 141.922,46.8754 135.922,41.7088 126.5,40.5C 106.764,39.8277 86.9311,39.161 67,38.5C 66.3333,39.1667 65.6667,39.8333 65,40.5C 63.7137,38.8172 62.547,37.1506 61.5,35.5C 75.1267,33.5176 89.1267,32.8509 103.5,33.5 Z M 88.5,48.5 C 88.5,48.8333 88.5,49.1667 88.5,49.5C 87.8333,49.8333 87.1667,50.1667 86.5,50.5C 86.5,49.1667 87.1667,48.5 88.5,48.5 Z M 74.5,85.5 C 74.7148,87.1788 74.0481,88.1788 72.5,88.5C 72.9321,87.2905 73.5987,86.2905 74.5,85.5 Z"/></g>
<g><path style="opacity:1" fill="#d0e0ea" d="M 88.5,49.5 C 92.1817,49.3347 95.8484,49.5014 99.5,50C 98.6919,50.3076 98.0253,50.8076 97.5,51.5C 101.577,58.955 101.411,66.2883 97,73.5C 96.8255,68.6486 96.3255,63.9819 95.5,59.5C 92.9325,64.5254 90.9325,69.8587 89.5,75.5C 88.7784,75.0825 88.2784,74.4158 88,73.5C 85.7533,75.1548 83.4199,75.4881 81,74.5C 80.6667,75.1667 80.3333,75.8333 80,76.5C 79.51,75.2068 79.3433,73.8734 79.5,72.5C 79.5,71.5 79.5,70.5 79.5,69.5C 80.404,68.791 80.7373,67.791 80.5,66.5C 81.404,65.791 81.7373,64.791 81.5,63.5C 82.404,62.791 82.7373,61.791 82.5,60.5C 83.3382,60.1583 83.6716,59.4916 83.5,58.5C 84.3382,58.1583 84.6716,57.4916 84.5,56.5C 84.5,55.5 84.5,54.5 84.5,53.5C 85.3382,53.1583 85.6716,52.4916 85.5,51.5C 86.1667,51.5 86.5,51.1667 86.5,50.5C 87.1667,50.1667 87.8333,49.8333 88.5,49.5 Z"/></g>
<g><path style="opacity:1" fill="#81b1cf" d="M 52.5,51.5 C 47.83,65.3057 51.1634,76.8057 62.5,86C 63.448,86.4828 64.448,86.6495 65.5,86.5C 66.2623,88.2624 67.5956,89.2624 69.5,89.5C 70.791,89.7373 71.791,89.404 72.5,88.5C 74.0481,88.1788 74.7148,87.1788 74.5,85.5C 75.404,84.791 75.7373,83.791 75.5,82.5C 75.8333,82.5 76.1667,82.5 76.5,82.5C 76.369,83.2389 76.5357,83.9056 77,84.5C 80.1644,84.4452 83.3311,84.4452 86.5,84.5C 86.0664,89.3675 84.0664,93.3675 80.5,96.5C 71.3189,94.5787 62.6523,90.2454 54.5,83.5C 54.1667,83.5 53.8333,83.5 53.5,83.5C 53.7373,82.209 53.404,81.209 52.5,80.5C 51.8333,77.5 51.1667,74.5 50.5,71.5C 49.5313,70.6906 48.6979,69.6906 48,68.5C 47.4248,62.4781 47.5915,56.4781 48.5,50.5C 49.9587,50.4326 51.2921,50.7659 52.5,51.5 Z M 74.5,85.5 C 74.7148,87.1788 74.0481,88.1788 72.5,88.5C 72.9321,87.2905 73.5987,86.2905 74.5,85.5 Z"/></g>
<g><path style="opacity:1" fill="#9bbdd3" d="M 88.5,49.5 C 88.5,49.1667 88.5,48.8333 88.5,48.5C 93.5,48.5 98.5,48.5 103.5,48.5C 104.167,48.5 104.5,48.8333 104.5,49.5C 104.833,50.1667 105.167,50.8333 105.5,51.5C 105.666,61.5056 105.5,71.5056 105,81.5C 104.667,81.1667 104.333,80.8333 104,80.5C 102.316,82.3513 100.483,84.018 98.5,85.5C 97.8313,87.6309 97.1646,89.6309 96.5,91.5C 96.1667,91.5 95.8333,91.5 95.5,91.5C 95.5,85.1667 95.5,78.8333 95.5,72.5C 95.5,68.1667 95.5,63.8333 95.5,59.5C 96.3255,63.9819 96.8255,68.6486 97,73.5C 101.411,66.2883 101.577,58.955 97.5,51.5C 98.0253,50.8076 98.6919,50.3076 99.5,50C 95.8484,49.5014 92.1817,49.3347 88.5,49.5 Z"/></g>
<g><path style="opacity:1" fill="#93bbd5" d="M 53.5,50.5 C 55.5592,55.0099 57.2259,59.6766 58.5,64.5C 61.2333,71.7002 63.5667,79.0335 65.5,86.5C 64.448,86.6495 63.448,86.4828 62.5,86C 51.1634,76.8057 47.83,65.3057 52.5,51.5C 52.5,50.8333 52.8333,50.5 53.5,50.5 Z"/></g>
<g><path style="opacity:0.016" fill="#1b1b1b" d="M 116.5,18.5 C 116.973,19.9063 117.973,20.573 119.5,20.5C 98.1667,21.1667 76.8333,21.8333 55.5,22.5C 54.8333,22.5 54.5,22.8333 54.5,23.5C 53.8333,23.5 53.5,23.8333 53.5,24.5C 52.8333,24.5 52.5,24.8333 52.5,25.5C 51.596,26.209 51.2627,27.209 51.5,28.5C 50.596,29.209 50.2627,30.209 50.5,31.5C 49.1667,32.5 49.1667,33.5 50.5,34.5C 50.5,36.1667 50.5,37.8333 50.5,39.5C 49.1667,39.8333 49.1667,40.1667 50.5,40.5C 50.8333,41.8333 51.1667,41.8333 51.5,40.5C 57.0617,42.9337 60.395,41.267 61.5,35.5C 62.547,37.1506 63.7137,38.8172 65,40.5C 65.6667,39.8333 66.3333,39.1667 67,38.5C 86.9311,39.161 106.764,39.8277 126.5,40.5C 106.822,40.167 87.1554,40.5004 67.5,41.5C 65.883,44.7843 63.5497,47.4509 60.5,49.5C 64.3196,59.7779 67.9863,70.1113 71.5,80.5C 72.735,79.6602 73.735,78.6602 74.5,77.5C 74.405,79.7857 73.7384,81.7857 72.5,83.5C 72.1667,82.1667 71.8333,82.1667 71.5,83.5C 69.665,82.8777 68.4983,81.5444 68,79.5C 66.69,73.3881 64.5233,67.7214 61.5,62.5C 60.7348,63.6119 59.7348,64.2786 58.5,64.5C 57.2259,59.6766 55.5592,55.0099 53.5,50.5C 54.8333,50.1667 54.8333,49.8333 53.5,49.5C 53.1667,48.1667 52.8333,48.1667 52.5,49.5C 51.8333,49.5 51.5,49.1667 51.5,48.5C 50.9032,47.8614 50.0698,47.528 49,47.5C 47.3009,47.3866 46.1342,48.0532 45.5,49.5C 44.8333,49.5 44.5,49.8333 44.5,50.5C 43.6618,50.8417 43.3284,51.5084 43.5,52.5C 42.596,53.209 42.2627,54.209 42.5,55.5C 41.596,56.209 41.2627,57.209 41.5,58.5C 40.596,59.209 40.2627,60.209 40.5,61.5C 39.596,62.209 39.2627,63.209 39.5,64.5C 38.596,65.209 38.2627,66.209 38.5,67.5C 37.596,68.209 37.2627,69.209 37.5,70.5C 36.1667,71.5 36.1667,72.5 37.5,73.5C 37.6716,74.4916 37.3382,75.1583 36.5,75.5C 35.3559,74.8174 35.3559,75.1507 36.5,76.5C 36.7373,77.791 36.404,78.791 35.5,79.5C 35.1667,76.8333 34.8333,76.8333 34.5,79.5C 34.1667,79.5 33.8333,79.5 33.5,79.5C 34.5829,69.5028 37.0829,59.8361 41,50.5C 42.9842,48.2365 45.1509,46.0698 47.5,44C 45.0163,35.5838 46.6829,27.9171 52.5,21C 54.7148,19.9562 57.0481,19.2895 59.5,19C 78.4971,18.5001 97.4971,18.3334 116.5,18.5 Z M 51.5,48.5 C 49.4352,48.5172 47.4352,48.8505 45.5,49.5C 46.1342,48.0532 47.3009,47.3866 49,47.5C 50.0698,47.528 50.9032,47.8614 51.5,48.5 Z"/></g>
<g><path style="opacity:1" fill="#69a0c4" d="M 51.5,48.5 C 51.5,49.1667 51.8333,49.5 52.5,49.5C 52.8333,49.5 53.1667,49.5 53.5,49.5C 53.5,49.8333 53.5,50.1667 53.5,50.5C 52.8333,50.5 52.5,50.8333 52.5,51.5C 51.2921,50.7659 49.9587,50.4326 48.5,50.5C 47.5915,56.4781 47.4248,62.4781 48,68.5C 48.6979,69.6906 49.5313,70.6906 50.5,71.5C 48.5923,72.4856 47.5923,74.1523 47.5,76.5C 46.207,75.158 45.3736,73.4913 45,71.5C 44.3214,67.1222 43.4881,62.7889 42.5,58.5C 42.5,57.5 42.5,56.5 42.5,55.5C 43.404,54.791 43.7373,53.791 43.5,52.5C 44.3382,52.1583 44.6716,51.4916 44.5,50.5C 45.1667,50.5 45.5,50.1667 45.5,49.5C 47.4352,48.8505 49.4352,48.5172 51.5,48.5 Z"/></g>
<g><path style="opacity:0.172" fill="#1e1e1d" d="M 31.5,83.5 C 31.3284,84.4916 31.6618,85.1583 32.5,85.5C 32.5,85.8333 32.5,86.1667 32.5,86.5C 31.5,86.8333 30.8333,87.5 30.5,88.5C 27.8333,88.8333 27.8333,89.1667 30.5,89.5C 28.5112,90.8866 26.6779,90.5532 25,88.5C 20.5711,70.6174 16.0711,52.784 11.5,35C 13.2852,33.8372 15.2852,33.1705 17.5,33C 21.0441,30.1268 21.3775,26.9601 18.5,23.5C 17.8333,23.5 17.5,23.1667 17.5,22.5C 14.8333,21.1667 12.1667,21.1667 9.5,22.5C 8.50838,22.3284 7.84171,22.6618 7.5,23.5C 6.50838,23.3284 5.84171,23.6618 5.5,24.5C 4.83333,24.5 4.5,24.8333 4.5,25.5C 3.83333,25.5 3.5,25.8333 3.5,26.5C 2.83333,26.5 2.5,26.8333 2.5,27.5C 1.66175,27.8417 1.32842,28.5084 1.5,29.5C 0.661754,29.8417 0.32842,30.5084 0.5,31.5C 0.166667,31.5 -0.166667,31.5 -0.5,31.5C -0.5,29.5 -0.5,27.5 -0.5,25.5C 2.75462,22.286 6.58795,19.9527 11,18.5C 14,19.8333 17,19.8333 20,18.5C 27.1595,22.6443 29.1595,28.6443 26,36.5C 23.9205,38.1233 21.7538,39.6233 19.5,41C 22.8753,52.3348 25.7086,63.8348 28,75.5C 28.5784,78.5722 29.745,81.2388 31.5,83.5 Z"/></g>
<g><path style="opacity:1" fill="#4382a7" d="M 41.5,58.5 C 41.8333,58.5 42.1667,58.5 42.5,58.5C 43.4881,62.7889 44.3214,67.1222 45,71.5C 45.3736,73.4913 46.207,75.158 47.5,76.5C 46.142,83.2455 43.8087,89.5789 40.5,95.5C 40.5,95.8333 40.5,96.1667 40.5,96.5C 39.391,96.5569 38.391,96.8902 37.5,97.5C 36.6676,96.6715 37.001,95.8382 38.5,95C 35.9277,92.6872 34.261,89.8539 33.5,86.5C 33.5,85.8333 33.1667,85.5 32.5,85.5C 32.5,85.1667 32.5,84.8333 32.5,84.5C 34.6977,84.5912 35.0311,83.9245 33.5,82.5C 34.404,81.791 34.7373,80.791 34.5,79.5C 34.8333,79.5 35.1667,79.5 35.5,79.5C 36.404,78.791 36.7373,77.791 36.5,76.5C 36.5,76.1667 36.5,75.8333 36.5,75.5C 37.3382,75.1583 37.6716,74.4916 37.5,73.5C 37.5,72.5 37.5,71.5 37.5,70.5C 38.404,69.791 38.7373,68.791 38.5,67.5C 39.404,66.791 39.7373,65.791 39.5,64.5C 40.404,63.791 40.7373,62.791 40.5,61.5C 41.404,60.791 41.7373,59.791 41.5,58.5 Z"/></g>
<g><path style="opacity:1" fill="#659dc1" d="M 105.5,51.5 C 106.167,64.1667 106.833,76.8333 107.5,89.5C 111.634,90.4849 115.968,90.8182 120.5,90.5C 116.018,91.3255 111.351,91.8255 106.5,92C 105.695,93.9717 104.361,95.4717 102.5,96.5C 103.55,97.4288 103.55,98.0954 102.5,98.5C 100.225,97.8888 98.5588,96.5554 97.5,94.5C 97.5,93.8333 97.1667,93.5 96.5,93.5C 96.5,93.1667 96.5,92.8333 96.5,92.5C 96.5,92.1667 96.5,91.8333 96.5,91.5C 97.1646,89.6309 97.8313,87.6309 98.5,85.5C 100.483,84.018 102.316,82.3513 104,80.5C 104.333,80.8333 104.667,81.1667 105,81.5C 105.5,71.5056 105.666,61.5056 105.5,51.5 Z"/></g>
<g><path style="opacity:1" fill="#397ba1" d="M 120.5,90.5 C 122.924,90.1924 125.257,90.5258 127.5,91.5C 126.197,93.9371 124.53,96.1038 122.5,98C 122.833,98.3333 123.167,98.6667 123.5,99C 117.175,99.4995 110.842,99.6662 104.5,99.5C 103.508,99.6716 102.842,99.3382 102.5,98.5C 103.55,98.0954 103.55,97.4288 102.5,96.5C 104.361,95.4717 105.695,93.9717 106.5,92C 111.351,91.8255 116.018,91.3255 120.5,90.5 Z"/></g>
<g><path style="opacity:0.141" fill="#1e1e1d" d="M 95.5,59.5 C 95.5,63.8333 95.5,68.1667 95.5,72.5C 94.1667,78.8333 94.1667,85.1667 95.5,91.5C 95.8333,91.5 96.1667,91.5 96.5,91.5C 96.5,91.8333 96.5,92.1667 96.5,92.5C 95.1667,92.8333 95.1667,93.1667 96.5,93.5C 97.1667,93.5 97.5,93.8333 97.5,94.5C 98.5588,96.5554 100.225,97.8888 102.5,98.5C 102.842,99.3382 103.508,99.6716 104.5,99.5C 110.346,100.167 116.346,100.833 122.5,101.5C 122.043,102.298 121.376,102.631 120.5,102.5C 119.833,102.5 119.5,102.833 119.5,103.5C 119.5,104.167 119.167,104.5 118.5,104.5C 118.167,103.167 117.833,103.167 117.5,104.5C 116.833,104.5 116.5,104.833 116.5,105.5C 115.508,105.328 114.842,105.662 114.5,106.5C 104.175,108.588 96.6755,104.921 92,95.5C 84.2276,107.311 73.7276,110.477 60.5,105C 56.187,102.188 53.187,98.3545 51.5,93.5C 49.7684,95.2827 48.2684,97.2827 47,99.5C 46,98.5 45,97.5 44,96.5C 43.6012,96.7284 43.4346,97.0618 43.5,97.5C 42.5,96.8333 41.5,96.1667 40.5,95.5C 43.8087,89.5789 46.142,83.2455 47.5,76.5C 47.5923,74.1523 48.5923,72.4856 50.5,71.5C 51.1667,74.5 51.8333,77.5 52.5,80.5C 53.404,81.209 53.7373,82.209 53.5,83.5C 53.8333,83.5 54.1667,83.5 54.5,83.5C 54.5,84.5 54.5,85.5 54.5,86.5C 55.404,87.209 55.7373,88.209 55.5,89.5C 56.404,90.209 56.7373,91.209 56.5,92.5C 55.1667,92.8333 55.1667,93.1667 56.5,93.5C 56.5,94.1667 56.8333,94.5 57.5,94.5C 62.4209,99.6389 68.4209,101.472 75.5,100C 77.5844,99.3028 79.2511,98.1361 80.5,96.5C 84.0664,93.3675 86.0664,89.3675 86.5,84.5C 87.696,81.5786 88.696,78.5786 89.5,75.5C 90.9325,69.8587 92.9325,64.5254 95.5,59.5 Z M 74.5,85.5 C 74.7148,87.1788 74.0481,88.1788 72.5,88.5C 72.9321,87.2905 73.5987,86.2905 74.5,85.5 Z"/></g>
<g><path style="opacity:1" fill="#659fc3" d="M 54.5,83.5 C 62.6523,90.2454 71.3189,94.5787 80.5,96.5C 79.2511,98.1361 77.5844,99.3028 75.5,100C 68.4209,101.472 62.4209,99.6389 57.5,94.5C 56.8333,94.5 56.5,94.1667 56.5,93.5C 56.5,93.1667 56.5,92.8333 56.5,92.5C 56.7373,91.209 56.404,90.209 55.5,89.5C 55.7373,88.209 55.404,87.209 54.5,86.5C 54.5,85.5 54.5,84.5 54.5,83.5 Z"/></g>
<g><path style="opacity:1" fill="#b8d1e1" d="M 78.5,72.5 C 78.8333,72.5 79.1667,72.5 79.5,72.5C 79.3433,73.8734 79.51,75.2068 80,76.5C 80.3333,75.8333 80.6667,75.1667 81,74.5C 83.4199,75.4881 85.7533,75.1548 88,73.5C 88.2784,74.4158 88.7784,75.0825 89.5,75.5C 88.696,78.5786 87.696,81.5786 86.5,84.5C 83.3311,84.4452 80.1644,84.4452 77,84.5C 76.5357,83.9056 76.369,83.2389 76.5,82.5C 76.5,81.8333 76.5,81.1667 76.5,80.5C 77.3382,80.1583 77.6716,79.4916 77.5,78.5C 77.5,77.8333 77.5,77.1667 77.5,76.5C 78.1667,76.5 78.5,76.1667 78.5,75.5C 78.5,74.5 78.5,73.5 78.5,72.5 Z"/></g>
<g><path style="opacity:0.056" fill="#1e1e1e" d="M 0.5,31.5 C 0.833333,31.5 1.16667,31.5 1.5,31.5C 1.5,34.1667 1.5,36.8333 1.5,39.5C 2.43448,40.5676 2.76781,41.901 2.5,43.5C 1.266,45.0484 1.266,45.7151 2.5,45.5C 3.33825,45.8417 3.67158,46.5084 3.5,47.5C 4.43448,48.5676 4.76781,49.901 4.5,51.5C 3.266,53.0484 3.266,53.7151 4.5,53.5C 5.33825,53.8417 5.67158,54.5084 5.5,55.5C 6.43448,56.5676 6.76781,57.901 6.5,59.5C 5.266,61.0484 5.266,61.7151 6.5,61.5C 7.33825,61.8417 7.67158,62.5084 7.5,63.5C 6.16667,64.5 6.16667,65.5 7.5,66.5C 8.16667,66.5 8.5,66.8333 8.5,67.5C 7.266,69.0484 7.266,69.7151 8.5,69.5C 9.33825,69.8417 9.67158,70.5084 9.5,71.5C 8.49314,74.1432 8.49314,74.4765 9.5,72.5C 10.404,73.209 10.7373,74.209 10.5,75.5C 9.16667,76.5 9.16667,77.5 10.5,78.5C 11.3382,78.8417 11.6716,79.5084 11.5,80.5C 12.4345,81.5676 12.7678,82.901 12.5,84.5C 13.4345,85.5676 13.7678,86.901 13.5,88.5C 14.404,89.209 14.7373,90.209 14.5,91.5C 13.1667,91.8333 13.1667,92.1667 14.5,92.5C 15.1667,92.5 15.5,92.8333 15.5,93.5C 14.1667,93.8333 14.1667,94.1667 15.5,94.5C 16.1667,94.5 16.5,94.8333 16.5,95.5C 23.0933,101.26 30.0933,101.926 37.5,97.5C 38.391,96.8902 39.391,96.5569 40.5,96.5C 40.8333,97.1667 41.1667,97.8333 41.5,98.5C 40.1667,98.8333 40.1667,99.1667 41.5,99.5C 41.5,100.167 41.8333,100.5 42.5,100.5C 42.5,101.167 42.8333,101.5 43.5,101.5C 43.4894,103.017 42.8228,104.184 41.5,105C 27.3179,110.831 16.8179,106.998 10,93.5C 6.66876,79.6367 3.16876,65.9701 -0.5,52.5C -0.5,47.8333 -0.5,43.1667 -0.5,38.5C 0.468218,36.3926 0.801552,34.0593 0.5,31.5 Z"/></g>
<g><path style="opacity:0.004" fill="#0a0a09" d="M 120.5,107.5 C 119.833,108.167 119.833,108.167 120.5,107.5 Z"/></g>
<g><path style="opacity:0.911" fill="#7ba7cd" d="M 40.5,95.5 C 41.5,96.1667 42.5,96.8333 43.5,97.5C 58.8065,113.763 77.4732,119.263 99.5,114C 105.119,112.524 110.119,110.024 114.5,106.5C 115.492,106.672 116.158,106.338 116.5,105.5C 117.167,105.5 117.5,105.167 117.5,104.5C 117.833,104.5 118.167,104.5 118.5,104.5C 119.167,104.5 119.5,104.167 119.5,103.5C 119.833,103.5 120.167,103.5 120.5,103.5C 121.167,103.5 121.5,103.833 121.5,104.5C 121.5,104.833 121.5,105.167 121.5,105.5C 120.833,105.5 120.5,105.833 120.5,106.5C 113.242,110.717 105.408,114.717 97,118.5C 93.307,117.721 89.6404,118.054 86,119.5C 68.3519,117.838 54.1852,111.838 43.5,101.5C 42.8333,101.5 42.5,101.167 42.5,100.5C 41.8333,100.5 41.5,100.167 41.5,99.5C 41.5,99.1667 41.5,98.8333 41.5,98.5C 41.1667,97.8333 40.8333,97.1667 40.5,96.5C 40.5,96.1667 40.5,95.8333 40.5,95.5 Z"/></g>
</svg>
